<svg width="56" height="47" viewBox="0 0 56 47" fill="none" xmlns="http://www.w3.org/2000/svg">
<path d="M2.22729 40.5612V12.2755C2.22729 8.68367 5.22049 7.78571 6.71709 7.78571H16.1457V4.19388C16.1457 2.03878 17.9416 1.5 18.8395 1.5H36.7987C39.313 1.5 39.9416 3.29592 39.9416 4.19388V7.78571H49.3702C52.962 7.78571 53.8599 10.7789 53.8599 12.2755V40.5612C53.8599 44.5122 50.8668 45.5 49.3702 45.5H6.71709C3.12525 45.5 2.22729 42.2075 2.22729 40.5612Z" stroke="black" stroke-width="3"/>
<path d="M39.9416 27.0918C39.9416 33.291 34.9162 38.3163 28.7171 38.3163C22.518 38.3163 17.4926 33.291 17.4926 27.0918C17.4926 20.8927 22.518 15.8673 28.7171 15.8673C34.9162 15.8673 39.9416 20.8927 39.9416 27.0918Z" stroke="black" stroke-width="3"/>
</svg>
