<svg width="42" height="47" viewBox="0 0 42 47" fill="none" xmlns="http://www.w3.org/2000/svg">
<path id="home" d="M2 19.8566V41C2 43.2091 3.79086 45 6 45H10.2883C12.4974 45 14.2883 43.2091 14.2883 41V30.7297C14.2883 28.7477 16.3495 24.3874 21.4234 24.3874C26.4973 24.3874 28.5586 28.7477 28.5586 30.7297V41C28.5586 43.2091 30.3494 45 32.5586 45H36.4505C38.6596 45 40.4505 43.2091 40.4505 41V19.832C40.4505 18.6949 39.9664 17.6115 39.1194 16.8527L24.0651 3.36646C22.5576 2.01601 20.2789 2.00435 18.7577 3.33931L3.36164 16.8501C2.49619 17.6096 2 18.7052 2 19.8566Z" stroke="black" stroke-width="3"/>
</svg>
