<svg width="42" height="47" viewBox="0 0 42 47" fill="none" xmlns="http://www.w3.org/2000/svg">
<path d="M1.65384 19.8566V41C1.65384 43.2091 3.4447 45 5.65384 45H9.94213C12.1513 45 13.9421 43.2091 13.9421 41V30.7297C13.9421 28.7477 16.0034 24.3874 21.0773 24.3874C26.1511 24.3874 28.2124 28.7477 28.2124 30.7297V41C28.2124 43.2091 30.0033 45 32.2124 45H36.1043C38.3134 45 40.1043 43.2091 40.1043 41V19.832C40.1043 18.6949 39.6203 17.6115 38.7733 16.8527L23.7189 3.36646C22.2114 2.01601 19.9328 2.00435 18.4115 3.33931L3.01548 16.8501C2.15003 17.6096 1.65384 18.7052 1.65384 19.8566Z" stroke="black" stroke-width="3"/>
</svg>
