<svg width="45" height="49" viewBox="0 0 45 49" fill="none" xmlns="http://www.w3.org/2000/svg">
<path d="M2.08127 25.3419C2.84291 30.5488 5.52949 35.2703 9.59937 38.5545L8.98403 45.5L14.5681 41.5181C19.38 43.5315 24.7683 43.6262 29.6466 41.7833C34.525 39.9403 38.5306 36.2967 40.8559 31.587C43.1812 26.8772 43.6533 21.4516 42.177 16.404C40.7008 11.3564 37.3859 7.06209 32.9007 4.3869C28.4155 1.71171 23.0936 0.854562 18.0078 1.98825C12.922 3.12194 8.45065 6.16216 5.4951 10.496C2.53954 14.8298 1.31962 20.135 2.08127 25.3419Z" stroke="black" stroke-width="3"/>
<path d="M19.1288 17.1129L11.0858 27.7581L18.3245 22.0261L26.3675 27.7581L35.2148 17.1129L27.1718 22.8449L19.1288 17.1129Z" fill="black"/>
</svg>
