<svg width="48" height="47" viewBox="0 0 48 47" fill="none" xmlns="http://www.w3.org/2000/svg">
<path d="M36.9343 45.5V47H37.0831L37.229 46.9708L36.9343 45.5ZM37.3111 2.85579L36.4128 1.65455C36.3561 1.69691 36.3026 1.74322 36.2525 1.79314L37.3111 2.85579ZM44.1754 9.7339L45.2402 10.7904C45.2672 10.7632 45.2931 10.735 45.3179 10.7058L44.1754 9.7339ZM18.8449 35.1424V36.6424C19.2433 36.6424 19.6253 36.484 19.9067 36.202L18.8449 35.1424ZM11.9538 35.1424H10.4538C10.4538 35.9708 11.1253 36.6424 11.9538 36.6424V35.1424ZM11.9538 28.2373L10.892 27.1777C10.6114 27.459 10.4538 27.84 10.4538 28.2373H11.9538ZM32.6273 7.52212L31.5686 6.45947L31.5656 6.46253L32.6273 7.52212ZM39.5185 14.4272L40.5802 15.4868L40.5832 15.4837L39.5185 14.4272ZM23.1519 4.29585H6.78539V7.29585H23.1519V4.29585ZM6.78539 4.29585C5.63123 4.29585 3.97942 4.68652 2.58922 5.85664C1.14086 7.07572 0.117004 9.02346 0.117004 11.8378H3.117C3.117 9.81857 3.81595 8.74534 4.52108 8.15184C5.28436 7.50938 6.21675 7.29585 6.78539 7.29585V4.29585ZM0.117004 11.8378V40.3212H3.117V11.8378H0.117004ZM0.117004 40.3212C0.117004 41.3751 0.369684 42.9561 1.19148 44.3286C2.06009 45.7792 3.58604 47 5.92399 47V44C4.81635 44 4.18881 43.4946 3.76533 42.7873C3.29502 42.0019 3.117 40.9936 3.117 40.3212H0.117004ZM5.92399 47H36.9343V44H5.92399V47ZM37.229 46.9708C38.1782 46.7805 39.5161 46.2389 40.6428 45.2003C41.8092 44.125 42.7413 42.5167 42.7413 40.3212H39.7413C39.7413 41.5783 39.2376 42.4155 38.6095 42.9945C37.9416 43.6102 37.1261 43.9317 36.6395 44.0292L37.229 46.9708ZM42.7413 40.3212V23.9217H39.7413V40.3212H42.7413ZM18.8449 33.6424H11.9538V36.6424H18.8449V33.6424ZM13.4538 35.1424V28.2373H10.4538V35.1424H13.4538ZM13.0155 29.2969L33.689 8.58171L31.5656 6.46253L10.892 27.1777L13.0155 29.2969ZM33.686 8.58476L38.3698 3.91843L36.2525 1.79314L31.5686 6.45947L33.686 8.58476ZM43.1106 8.67737L38.4537 13.3707L40.5832 15.4837L45.2402 10.7904L43.1106 8.67737ZM38.4567 13.3676L17.7832 34.0828L19.9067 36.202L40.5802 15.4868L38.4567 13.3676ZM31.5656 8.58171L38.4567 15.4868L40.5802 13.3676L33.689 6.46253L31.5656 8.58171ZM38.2095 4.05702C40.4152 2.40744 42.2964 2.93533 43.2671 3.96208C44.2639 5.01653 44.6137 6.90361 43.0328 8.762L45.3179 10.7058C47.8557 7.72251 47.5325 4.10708 45.4471 1.90117C43.3356 -0.332433 39.7254 -0.822763 36.4128 1.65455L38.2095 4.05702Z" fill="black"/>
</svg>
