<svg width="48" height="48" viewBox="0 0 48 48" fill="none" xmlns="http://www.w3.org/2000/svg">
<path d="M36.7929 46.5V36.8051C36.7929 33.922 34.4557 31.5847 31.5726 31.5847H15.1658C12.2827 31.5847 9.94546 33.922 9.94546 36.8051V46.5M30.8268 21.1441C30.8268 24.8509 27.6549 27.8559 23.7421 27.8559C19.8293 27.8559 16.6573 24.8509 16.6573 21.1441C16.6573 17.4372 19.8293 14.4322 23.7421 14.4322C27.6549 14.4322 30.8268 17.4372 30.8268 21.1441ZM5.47088 46.5H42.0133C44.0726 46.5 45.7421 44.8306 45.7421 42.7712V10.7034C45.7421 8.64402 44.0726 6.97458 42.0133 6.97458H27.098L23.7421 2.5L20.3861 6.97458H5.47088C3.41151 6.97458 1.74207 8.64402 1.74207 10.7034V42.7712C1.74207 44.8306 3.41151 46.5 5.47088 46.5Z" stroke="black" stroke-width="3"/>
</svg>
