<svg width="49" height="47" viewBox="0 0 49 47" fill="none" xmlns="http://www.w3.org/2000/svg">
<path d="M14.2586 1.5H34.7413C41.7028 1.5 47.3461 7.12842 47.3461 14.0714V32.9286C47.3461 39.8716 41.7028 45.5 34.7413 45.5H14.2586C7.29716 45.5 1.65381 39.8716 1.65381 32.9286V14.0714C1.65381 7.12842 7.29716 1.5 14.2586 1.5ZM14.2586 1.5L21.3488 12.8802M1.67803 13.2857H47.3219M28.439 1.5L35.5291 13.2857" stroke="black" stroke-width="3"/>
<path d="M30.5322 25.9295C32.6509 27.0586 32.6509 30.0953 30.5322 31.2244L23.4109 35.0197C21.4126 36.0846 18.9999 34.6365 18.9999 32.3722V24.7817C18.9999 22.5174 21.4126 21.0693 23.4109 22.1342L30.5322 25.9295Z" fill="black"/>
</svg>
