<svg width="54" height="52" viewBox="0 0 54 52" fill="none" xmlns="http://www.w3.org/2000/svg">
<path id="reelsI" d="M2 15.7143C2 8.14009 8.15638 2 15.7507 2H38.0955C45.6898 2 51.8461 8.1401 51.8461 15.7143V36.2857C51.8461 43.8599 45.6898 50 38.0955 50H15.7507C8.15638 50 2 43.8599 2 36.2857V15.7143Z"/>
<path id="reelsO" d="M15.7507 2H38.0955C45.6898 2 51.8461 8.1401 51.8461 15.7143V36.2857C51.8461 43.8599 45.6898 50 38.0955 50H15.7507C8.15638 50 2 43.8599 2 36.2857V15.7143C2 8.14009 8.15638 2 15.7507 2ZM15.7507 2L23.4854 14.4148M2.02642 14.8571H51.8197M31.2202 2L38.9549 14.8571"/>
<path id="reelsT" d="M33.0323 28.5064C35.151 29.6355 35.151 32.6722 33.0323 33.8013L25.9109 37.5966C23.9127 38.6615 21.5 37.2134 21.5 34.9491V27.3586C21.5 25.0943 23.9127 23.6462 25.911 24.7111L33.0323 28.5064Z"/>
</svg>
