<svg width="39" height="45" viewBox="0 0 39 45" fill="none" xmlns="http://www.w3.org/2000/svg">
<path d="M29.8185 20.8932C29.629 20.8023 29.4365 20.7149 29.2415 20.6312C28.9019 14.3733 25.4825 10.7907 19.7409 10.7541C19.7149 10.7539 19.689 10.7539 19.663 10.7539C16.2288 10.7539 13.3726 12.2198 11.6147 14.8872L14.7724 17.0534C16.0856 15.0609 18.1466 14.6361 19.6645 14.6361C19.682 14.6361 19.6996 14.6361 19.717 14.6363C21.6075 14.6483 23.034 15.198 23.9574 16.2699C24.6293 17.0503 25.0787 18.1286 25.3012 19.4896C23.6251 19.2047 21.8124 19.1172 19.8745 19.2283C14.4157 19.5427 10.9063 22.7264 11.142 27.1503C11.2616 29.3943 12.3796 31.3248 14.2897 32.5859C15.9048 33.6519 17.9848 34.1733 20.1466 34.0553C23.0015 33.8988 25.2411 32.8095 26.8036 30.8178C27.9902 29.3053 28.7407 27.3453 29.0721 24.8755C30.4327 25.6966 31.441 26.7772 31.9979 28.0761C32.9448 30.2841 33 33.9125 30.0394 36.8706C27.4455 39.462 24.3275 40.5831 19.6152 40.6177C14.3881 40.579 10.4349 38.9026 7.8646 35.6351C5.45776 32.5755 4.21389 28.1563 4.16748 22.5C4.21389 16.8437 5.45776 12.4244 7.8646 9.36479C10.4349 6.09737 14.388 4.42104 19.6151 4.3822C24.8802 4.42134 28.9023 6.10574 31.571 9.38892C32.8795 10.999 33.8661 13.0237 34.5164 15.3844L38.2168 14.3972C37.4285 11.4913 36.188 8.98735 34.4999 6.91071C31.0787 2.70153 26.0751 0.544721 19.628 0.5H19.6022C13.1683 0.544566 8.22073 2.70958 4.89694 6.93484C1.93922 10.6948 0.413547 15.9265 0.362282 22.4845L0.362122 22.5L0.362282 22.5155C0.413547 29.0734 1.93922 34.3053 4.89694 38.0652C8.22073 42.2904 13.1683 44.4555 19.6022 44.5H19.628C25.3482 44.4604 29.3801 42.9628 32.7017 39.6442C37.0474 35.3026 36.9165 29.8606 35.4842 26.5198C34.4566 24.1241 32.4975 22.1783 29.8185 20.8932ZM19.9422 30.1787C17.5497 30.3134 15.0642 29.2396 14.9416 26.9394C14.8508 25.234 16.1553 23.331 20.0891 23.1043C20.5396 23.0783 20.9816 23.0656 21.4159 23.0656C22.8447 23.0656 24.1815 23.2044 25.3967 23.4701C24.9435 29.1309 22.2847 30.0501 19.9422 30.1787Z" fill="black"/>
</svg>
