<svg width="60" height="47" viewBox="0 0 60 47" fill="none" xmlns="http://www.w3.org/2000/svg">
<path d="M43.3688 18.7174L50.9678 10.9286C52.8676 9.54964 54.9574 10.1634 55.7173 10.9286C56.6672 11.8852 57.617 12.8417 57.617 14.7548V33.8852C57.617 37.2887 56.0972 38.6678 53.8175 38.6678C50.9678 38.6678 50.018 37.7113 48.1182 35.7982L43.3688 31.0156M2.52372 9.15217C2.52372 6.60145 3.85355 1.5 9.17291 1.5H35.7697C38.3027 1.5 43.3688 3.22174 43.3688 10.1087V39.7609C43.3688 41.6739 42.0389 45.5 36.7196 45.5H9.17292C6.32327 45.5 2.52373 43.587 2.52373 36.8913C2.52373 30.7696 2.20709 15.8478 2.52372 9.15217Z" stroke="black" stroke-width="3"/>
</svg>
